<svg xmlns="http://www.w3.org/2000/svg" viewBox="0 0 920 540" font-family="Helvetica, Arial, sans-serif">
  <rect x="0" y="0" width="920" height="540" fill="#ffffff"/>
  <text x="460" y="30" text-anchor="middle" font-size="18" font-weight="bold" fill="#1A1A1A">DataShare — Modèle Conceptuel de Données (MCD)</text>

  <!-- USER entity -->
  <rect x="50" y="160" width="250" height="170" rx="4" fill="#FFFFFF" stroke="#2E6DA4" stroke-width="1.8"/>
  <rect x="50" y="160" width="250" height="30" fill="#2E6DA4"/>
  <text x="175" y="181" text-anchor="middle" font-size="14" font-weight="bold" fill="#FFFFFF">USER</text>
  <line x1="50" y1="190" x2="300" y2="190" stroke="#2E6DA4" stroke-width="1"/>
  <text x="66" y="214" font-size="12" fill="#1A1A1A" font-weight="bold" text-decoration="underline">id : UUID</text>
  <text x="66" y="240" font-size="12" fill="#1A1A1A">email : VARCHAR (unique)</text>
  <text x="66" y="266" font-size="12" fill="#1A1A1A">password : VARCHAR (hash)</text>
  <text x="66" y="292" font-size="12" fill="#1A1A1A">createdAt : TIMESTAMP</text>

  <!-- FILE entity -->
  <rect x="600" y="90" width="280" height="370" rx="4" fill="#FFFFFF" stroke="#2E7D32" stroke-width="1.8"/>
  <rect x="600" y="90" width="280" height="30" fill="#2E7D32"/>
  <text x="740" y="111" text-anchor="middle" font-size="14" font-weight="bold" fill="#FFFFFF">FILE</text>
  <line x1="600" y1="120" x2="880" y2="120" stroke="#2E7D32" stroke-width="1"/>
  <text x="616" y="146" font-size="12" fill="#1A1A1A" font-weight="bold" text-decoration="underline">id : UUID</text>
  <text x="616" y="172" font-size="12" fill="#1A1A1A">originalName : VARCHAR</text>
  <text x="616" y="198" font-size="12" fill="#1A1A1A">storagePath : VARCHAR</text>
  <text x="616" y="224" font-size="12" fill="#1A1A1A">mimeType : VARCHAR</text>
  <text x="616" y="250" font-size="12" fill="#1A1A1A">sizeBytes : INTEGER</text>
  <text x="616" y="276" font-size="12" fill="#1A1A1A">downloadToken : VARCHAR (unique)</text>
  <text x="616" y="302" font-size="12" fill="#1A1A1A">passwordHash : VARCHAR (null)</text>
  <text x="616" y="328" font-size="12" fill="#1A1A1A">expiresAt : TIMESTAMP</text>
  <text x="616" y="354" font-size="12" fill="#1A1A1A">uploadedAt : TIMESTAMP</text>

  <!-- Association -->
  <ellipse cx="445" cy="245" rx="80" ry="44" fill="#FFF3E0" stroke="#E65100" stroke-width="1.8"/>
  <text x="445" y="250" text-anchor="middle" font-size="13" font-weight="bold" fill="#E65100">DÉPOSER</text>

  <!-- relation lines -->
  <line x1="300" y1="245" x2="365" y2="245" stroke="#555" stroke-width="1.6"/>
  <line x1="525" y1="245" x2="600" y2="250" stroke="#555" stroke-width="1.6"/>

  <!-- cardinalities -->
  <text x="332" y="236" text-anchor="middle" font-size="13" font-weight="bold" fill="#E65100">0,n</text>
  <text x="565" y="236" text-anchor="middle" font-size="13" font-weight="bold" fill="#E65100">0,1</text>

  <!-- legend / physical translation -->
  <text x="50" y="420" font-size="12" font-weight="bold" fill="#1A1A1A">Lecture :</text>
  <text x="50" y="440" font-size="12" fill="#444">— un USER peut déposer 0 à n FILE  (0,n)</text>
  <text x="50" y="458" font-size="12" fill="#444">— un FILE est déposé par 0 ou 1 USER  (0,1) — un dépôt anonyme est possible</text>
  <text x="50" y="486" font-size="11.5" font-style="italic" fill="#666">Traduction physique : la table files porte une clé étrangère user_id (NULL autorisé, ON DELETE CASCADE).</text>
</svg>
